HIERARCHY
ROOT Hips
{
	OFFSET 0.00000 0.00000 0.00000
	CHANNELS 6 Xposition Yposition Zposition Yrotation Zrotation Xrotation 
	JOINT Lumbar
	{
		OFFSET 0 0 0
		CHANNELS 3 Zrotation Xrotation Yrotation
		JOINT Neck
		{
			OFFSET 0.00 0.2701 0.00
			CHANNELS 3 Zrotation Xrotation Yrotation
			End Site
			{
				OFFSET 0.00 0.1379 0.00
			}
		}
		JOINT RightShoulder
		{
			OFFSET 0.0119 0.2289 0.1181
			CHANNELS 3 Zrotation Xrotation Yrotation
			JOINT RightElbow
			{
				OFFSET 0.00 -0.1475 0.00
				CHANNELS 2 Zrotation Yrotation
				JOINT RightWrist
				{
					OFFSET 0.00 -0.1605 0.00
					CHANNELS 2 Zrotation Xrotation
					End Site
					{
						OFFSET 0.0040 -0.1068 0.0006
					}
				}
			}
		}
		JOINT LeftShoulder
		{
			OFFSET 0.0119 0.2289 -0.1181
			CHANNELS 3 Zrotation Xrotation Yrotation
			JOINT LeftElbow
			{
				OFFSET 0.00 -0.1475 0.00
				CHANNELS 2 Zrotation Yrotation
				JOINT LeftWrist
				{
					OFFSET 0.00 -0.1605 0.00
					CHANNELS 2 Zrotation Xrotation
					End Site
					{
						OFFSET 0.0040 -0.1068 -0.0006
					}
				}
			}
		}
	}
	JOINT RightHip
	{
		OFFSET 0.0316 -0.0424 0.0458
		CHANNELS 3 Zrotation Xrotation Yrotation
		JOINT RightKnee
		{
			OFFSET 0.00 -0.2438 0.00
			CHANNELS 1 Zrotation
			JOINT RightAnkle
			{
				OFFSET 0.00 -0.2449 0.00
				CHANNELS 3 Zrotation Xrotation Yrotation
				End Site
				{
					OFFSET 0.1237 -0.0542 0.0051
				}
			}
		}
	}
	JOINT LeftHip
	{
		OFFSET 0.0316 -0.0424 -0.0458
		CHANNELS 3 Zrotation Xrotation Yrotation
		JOINT LeftKnee
		{
			OFFSET 0.00 -0.2438 0.00
			CHANNELS 1 Zrotation
			JOINT LeftAnkle
			{
				OFFSET 0.00 -0.2449 0.00
				CHANNELS 3 Zrotation Xrotation Yrotation
				End Site
				{
					OFFSET 0.1237 -0.0542 -0.0051
				}
			}
		}
	}
}
MOTION
Frames: 24
Frame Time: 0.02
-0.26573 -0.28696 0.06386 28.73316 11.04863 -10.70911 14.10812 6.22863 -11.10705 -32.41031 -9.58148 -2.1172 -50.15172 -58.95743 -36.83031 106.61333 74.72441 4.90557 -6.38052 -30.13402 20.38277 -28.18476 75.35474 -30.06226 25.87102 12.49227 97.29538 -13.32572 -14.69343 -125.10831 -8.57111 -2.34947 -3.48067 93.58266 9.82451 2.6037 -106.69154 -11.21744 -0.36942 2.26716
-0.26565 -0.28668 0.06382 28.78453 10.93043 -10.76399 14.7092 6.20662 -11.34052 -32.46179 -10.16241 -2.1173 -50.25229 -58.92639 -39.7919 105.31193 74.4384 6.31124 -6.13863 -30.24094 20.13272 -27.90769 75.19196 -35.00011 23.82693 11.77572 97.35424 -13.32142 -14.72833 -125.09657 -8.57019 -2.34988 -3.48115 93.74538 9.48046 2.40392 -106.65731 -11.12486 -0.33104 2.28112
-0.26554 -0.28633 0.06379 28.85103 10.78258 -10.82806 15.37522 6.18663 -11.59556 -32.51683 -10.8046 -2.1174 -49.86928 -58.802 -42.41957 103.79901 74.23068 7.88039 -5.85647 -30.40451 19.78142 -27.49032 75.02222 -43.02935 20.52629 10.60142 97.42891 -13.32049 -14.76635 -125.08202 -8.57076 -2.34954 -3.48084 93.95069 9.06292 2.15819 -106.57945 -11.01211 -0.28557 2.2968
-0.26544 -0.28602 0.06376 28.91081 10.65233 -10.8878 16.00297 6.15613 -11.83062 -32.56821 -11.38957 -2.1175 -49.71236 -58.72423 -45.18893 102.35746 74.00109 9.35977 -5.59635 -30.53477 19.49084 -27.15738 74.8692 -49.3977 17.89572 9.67421 97.49461 -13.31503 -14.80047 -125.06727 -8.57119 -2.35154 -3.4816 94.12765 8.68431 1.94821 -106.47524 -10.90892 -0.24373 2.31158
-0.26533 -0.2857 0.0637 28.97076 10.5043 -10.94848 16.6689 6.16477 -12.10808 -32.62691 -12.09489 -2.1176 -49.53243 -58.61666 -48.00314 101.01006 73.69965 10.91514 -5.32078 -30.69684 19.14075 -26.74011 74.66202 -56.77591 14.87583 8.59242 97.56625 -13.32325 -14.84675 -125.06061 -8.5684 -2.34574 -3.47957 94.34372 8.28236 1.67511 -106.56765 -10.80177 -0.19968 2.32705
-0.26525 -0.28537 0.06371 29.03342 10.38679 -11.00932 17.26996 6.09427 -12.30244 -32.67267 -12.56885 -2.1177 -49.27941 -58.555 -50.64392 99.4211 73.57434 12.34914 -5.06726 -30.80486 18.88907 -26.46447 74.56193 -62.79309 12.36579 7.72245 97.63103 -13.30245 -14.86614 -125.03423 -8.57387 -2.3552 -3.4829 94.48676 7.91073 1.52292 -106.23808 -10.70077 -0.15905 2.34133
-0.26527 -0.28501 0.0639 29.1023 10.35617 -11.06788 17.67901 5.78724 -12.26349 -32.6694 -12.34567 -2.11784 -48.99905 -58.62656 -52.88295 97.20552 73.88619 13.38038 -4.8899 -30.76634 18.93959 -26.60795 74.79579 -64.55001 11.45934 7.51534 97.65878 -13.21226 -14.83105 -124.96928 -8.59124 -2.41424 -3.50333 94.43332 7.65187 1.71318 -104.77386 -10.59864 -0.12548 2.35306
-0.26532 -0.28464 0.06415 29.17274 10.35817 -11.12642 18.01948 5.40352 -12.13999 -32.65504 -11.89437 -2.11798 -48.65003 -58.75236 -54.95816 94.75668 74.38022 14.28654 -4.73517 -30.66906 19.09092 -26.89866 75.13139 -64.81023 11.1191 7.53966 97.68181 -13.09053 -14.76513 -124.8796 -8.6186 -2.48747 -3.52883 94.30213 7.4247 2.02709 -102.88454 -10.50731 -0.09627 2.36337
-0.26536 -0.28429 0.06436 29.24092 10.34823 -11.1851 18.38975 5.06662 -12.05436 -32.65427 -11.5775 -2.11811 -48.29785 -58.86526 -57.11259 92.42463 74.81153 15.26691 -4.56647 -30.58742 19.19258 -27.12669 75.39585 -65.58436 10.59455 7.48102 97.71631 -12.97577 -14.6997 -124.79398 -8.6486 -2.5493 -3.55056 94.19627 7.17518 2.28631 -101.17451 -10.42668 -0.0679 2.37353
-0.26539 -0.28388 0.06461 29.31661 10.32501 -11.24317 18.76962 4.68015 -11.9718 -32.61868 -11.13807 -2.11826 -48.08022 -58.92402 -59.24051 90.04335 75.15877 16.18225 -4.41171 -30.55249 19.3086 -27.3355 75.7631 -67.10925 9.74176 7.3211 97.7118 -12.89251 -14.69088 -124.74732 -8.64932 -2.63143 -3.57825 94.13382 6.95434 2.53811 -99.51426 -10.28113 -0.02782 2.38691
-0.26544 -0.28359 0.0648 29.37629 10.33768 -11.30289 19.11038 4.37759 -11.8625 -32.65151 -10.89245 -2.11837 -47.56436 -59.11105 -61.38252 87.70715 75.72575 17.19823 -4.23409 -30.40805 19.41798 -27.61677 75.94315 -66.74703 9.69435 7.42265 97.78746 -12.73576 -14.55753 -124.6027 -8.71213 -2.67539 -3.59499 93.96235 6.68514 2.83465 -97.65921 -10.2715 -0.01269 2.39344
-0.2655 -0.28365 0.06477 29.39588 10.44096 -11.36284 19.37603 4.33503 -11.7 -32.88829 -11.29362 -2.1184 -46.3149 -59.62897 -63.66216 85.59574 76.83541 18.5464 -3.98556 -29.95417 19.50238 -28.10113 75.55897 -60.89723 11.99101 8.28234 98.08352 -12.3871 -14.08247 -124.28631 -8.95463 -2.60394 -3.57812 93.50528 6.24996 3.22962 -95.2908 -10.65321 -0.07053 2.37959
-0.26557 -0.28383 0.06467 29.39837 10.57963 -11.42519 19.60102 4.37792 -11.51349 -33.19212 -11.88734 -2.1184 -44.75857 -60.27686 -65.95309 83.53105 78.16332 19.9948 -3.71388 -29.39582 19.57433 -28.64746 74.98738 -53.29533 15.04016 9.38352 98.46077 -11.96525 -13.485 -123.85409 -9.25727 -2.49472 -3.55042 92.94179 5.76987 3.66402 -92.75613 -11.16804 -0.15248 2.35921
-0.26565 -0.28395 0.06461 29.40567 10.7024 -11.4893 19.83412 4.37527 -11.33782 -33.45698 -12.35555 -2.11841 -43.29454 -60.87187 -68.20111 81.41738 79.40363 21.38098 -3.45446 -28.89913 19.63992 -29.13962 74.51597 -46.91371 17.57676 10.31383 98.80213 -11.57435 -12.94602 -123.4152 -9.52539 -2.40722 -3.52916 92.42895 5.3271 4.07797 -90.34981 -11.6097 -0.22001 2.34303
-0.26565 -0.28409 0.06451 29.42558 10.8249 -11.54154 20.10995 4.39766 -11.15924 -33.75678 -12.97479 -2.11842 -42.01824 -61.44105 -70.59966 79.41143 80.60103 22.83355 -3.18838 -28.34065 19.7573 -29.74367 73.98363 -38.73004 20.83758 11.50432 99.13894 -11.19089 -12.3904 -123.22924 -9.82425 -2.30137 -3.50185 91.90314 4.81456 4.50929 -87.70545 -12.10493 -0.30207 2.3217
-0.26582 -0.28423 0.06449 29.41511 10.9567 -11.61889 20.28639 4.38991 -10.98245 -34.00056 -13.33002 -2.11843 -40.28987 -62.09615 -72.69334 77.19671 81.93773 24.17292 -2.93047 -27.88666 19.76553 -30.13122 73.53375 -33.85461 22.78014 12.2144 99.50473 -10.7765 -11.84515 -122.48501 -10.07316 -2.2241 -3.48426 91.38086 4.43555 4.90915 -85.52334 -12.52041 -0.35984 2.30942
-0.26647 -0.28436 0.0647 29.32533 11.09888 -11.76643 20.2122 4.2723 -10.81417 -34.06765 -12.89372 -2.11844 -37.28871 -62.93915 -73.908 74.38452 83.60128 25.17805 -2.69993 -27.74822 19.44932 -29.87285 73.34462 -38.96274 20.73581 11.47663 99.92972 -10.28095 -11.32203 -120.2643 -10.17008 -2.23931 -3.49827 90.88793 4.4423 5.23837 -84.65801 -12.68001 -0.34183 2.32501
-0.26729 -0.28449 0.06498 29.20555 11.25022 -11.93883 20.03716 4.12285 -10.64944 -34.0772 -12.18901 -2.11844 -33.8573 -63.86653 -74.82083 71.3647 85.39758 26.0658 -2.47843 -27.71841 19.02793 -29.39976 73.2465 -47.39065 17.36609 10.25735 100.38144 -9.7591 -10.8212 -117.47963 -10.21454 -2.28387 -3.52209 90.40376 4.58354 5.52925 -84.26607 -12.75522 -0.29897 2.34974
-0.26803 -0.28463 0.06523 29.09919 11.40158 -12.09896 19.89951 3.99209 -10.48495 -34.11679 -11.61852 -2.11844 -30.69474 -64.76732 -75.89772 68.44598 87.13486 27.00612 -2.25326 -27.63839 18.67146 -29.04602 73.115 -54.02921 14.70758 9.2984 100.8214 -9.25896 -10.33339 -114.92843 -10.28246 -2.3119 -3.53987 89.92023 4.65931 5.81993 -83.65945 -12.87114 -0.26933 2.36942
-0.26877 -0.28475 0.06548 28.99296 11.53667 -12.26349 19.79597 3.84643 -10.31148 -34.14213 -11.00323 -2.11844 -27.23187 -65.62561 -76.86924 65.49572 88.87359 27.95343 -2.02554 -27.55884 18.24285 -28.60319 72.94465 -61.78592 11.61763 8.17354 101.26195 -8.71679 -9.74081 -112.46702 -10.35388 -2.35146 -3.56359 89.41363 4.7526 6.18593 -83.04383 -12.98203 -0.23259 2.39254
-0.26955 -0.2849 0.06574 28.8798 11.70722 -12.42447 19.59806 3.72315 -10.1582 -34.18281 -10.41462 -2.11845 -24.27125 -66.58754 -77.97852 62.56697 90.63891 28.85663 -1.80548 -27.50475 17.93902 -28.29337 72.8776 -68.03094 9.09966 7.27579 101.70731 -8.25469 -9.3768 -109.68932 -10.40502 -2.37528 -3.57785 88.95833 4.84105 6.3861 -82.56288 -13.08127 -0.20419 2.41087
-0.27045 -0.28513 0.06602 28.75299 11.97412 -12.57171 19.16378 3.66929 -10.05768 -34.27782 -9.96867 -2.1185 -23.02495 -67.83938 -79.62729 59.70363 92.43367 29.66945 -1.60552 -27.50124 18.01131 -28.4097 73.08907 -69.23923 8.50194 7.13118 102.15327 -8.0393 -9.60974 -106.15166 -10.41037 -2.34152 -3.55982 88.64522 4.89018 6.13106 -82.32861 -13.17113 -0.20679 2.41287
-0.27139 -0.28538 0.06629 28.62086 12.27583 -12.71401 18.63843 3.63867 -9.97813 -34.39019 -9.55754 -2.11856 -22.263 -69.18564 -81.40932 56.87999 94.25019 30.44075 -1.41305 -27.51881 18.21189 -28.66616 73.39965 -68.82317 8.521 7.23 102.60418 -7.90227 -10.07785 -102.32199 -10.39722 -2.29237 -3.53268 88.3836 4.92829 5.71139 -82.21608 -13.25098 -0.21814 2.40993
-0.27229 -0.28562 0.06656 28.49223 12.56132 -12.85728 18.15512 3.59708 -9.89015 -34.49581 -9.12697 -2.11862 -21.13009 -70.4742 -83.07416 54.06389 96.06498 31.22907 -1.21627 -27.52284 18.34981 -28.85352 73.65528 -69.2013 8.24002 7.20946 103.0561 -7.71705 -10.45786 -98.64056 -10.39405 -2.25502 -3.51226 88.09705 4.96762 5.37138 -82.05499 -13.33353 -0.22415 2.40986
